<svg width="610" height="769" viewBox="0 0 610 769" fill="none" xmlns="http://www.w3.org/2000/svg">
<ellipse cx="14.4855" cy="15.2069" rx="14.4855" ry="15.2069" fill="#242323" fill-opacity="0.3"/>
<ellipse cx="67.599" cy="15.2069" rx="14.4855" ry="15.2069" fill="#242323" fill-opacity="0.3"/>
<ellipse cx="120.712" cy="15.2069" rx="14.4855" ry="15.2069" fill="#242323" fill-opacity="0.3"/>
<ellipse cx="14.4855" cy="65.8967" rx="14.4855" ry="15.2069" fill="#242323" fill-opacity="0.3"/>
<ellipse cx="67.599" cy="65.8967" rx="14.4855" ry="15.2069" fill="#242323" fill-opacity="0.3"/>
<ellipse cx="120.712" cy="65.8967" rx="14.4855" ry="15.2069" fill="#242323" fill-opacity="0.3"/>
<ellipse cx="173.826" cy="65.8967" rx="14.4855" ry="15.2069" fill="#242323" fill-opacity="0.3"/>
<ellipse cx="173.826" cy="116.587" rx="14.4855" ry="15.2069" fill="#242323" fill-opacity="0.3"/>
<ellipse cx="120.712" cy="116.587" rx="14.4855" ry="15.2069" fill="#242323" fill-opacity="0.3"/>
<ellipse cx="67.599" cy="116.587" rx="14.4855" ry="15.2069" fill="#242323" fill-opacity="0.3"/>
<ellipse cx="14.4855" cy="116.587" rx="14.4855" ry="15.2069" fill="#242323" fill-opacity="0.3"/>
<ellipse cx="14.4855" cy="167.276" rx="14.4855" ry="15.2069" fill="#242323" fill-opacity="0.3"/>
<ellipse cx="67.599" cy="167.276" rx="14.4855" ry="15.2069" fill="#242323" fill-opacity="0.3"/>
<ellipse cx="120.712" cy="167.276" rx="14.4855" ry="15.2069" fill="#242323" fill-opacity="0.3"/>
<ellipse cx="173.826" cy="167.276" rx="14.4855" ry="15.2069" fill="#242323" fill-opacity="0.3"/>
<ellipse cx="173.826" cy="15.2069" rx="14.4855" ry="15.2069" fill="#242323" fill-opacity="0.3"/>
<ellipse cx="225.33" cy="15.2069" rx="14.4855" ry="15.2069" fill="#242323" fill-opacity="0.3"/>
<ellipse cx="278.443" cy="15.2069" rx="14.4855" ry="15.2069" fill="#242323" fill-opacity="0.3"/>
<ellipse cx="331.557" cy="15.2069" rx="14.4855" ry="15.2069" fill="#242323" fill-opacity="0.3"/>
<ellipse cx="225.33" cy="65.8967" rx="14.4855" ry="15.2069" fill="#242323" fill-opacity="0.3"/>
<ellipse cx="278.443" cy="65.8967" rx="14.4855" ry="15.2069" fill="#242323" fill-opacity="0.3"/>
<ellipse cx="331.557" cy="65.8967" rx="14.4855" ry="15.2069" fill="#242323" fill-opacity="0.3"/>
<ellipse cx="384.67" cy="65.8967" rx="14.4855" ry="15.2069" fill="#242323" fill-opacity="0.3"/>
<ellipse cx="384.67" cy="116.587" rx="14.4855" ry="15.2069" fill="#242323" fill-opacity="0.3"/>
<ellipse cx="331.557" cy="116.587" rx="14.4855" ry="15.2069" fill="#242323" fill-opacity="0.3"/>
<ellipse cx="278.443" cy="116.587" rx="14.4855" ry="15.2069" fill="#242323" fill-opacity="0.3"/>
<ellipse cx="225.33" cy="116.587" rx="14.4855" ry="15.2069" fill="#242323" fill-opacity="0.3"/>
<ellipse cx="225.33" cy="167.276" rx="14.4855" ry="15.2069" fill="#242323" fill-opacity="0.3"/>
<ellipse cx="278.443" cy="167.276" rx="14.4855" ry="15.2069" fill="#242323" fill-opacity="0.3"/>
<ellipse cx="331.557" cy="167.276" rx="14.4855" ry="15.2069" fill="#242323" fill-opacity="0.3"/>
<ellipse cx="384.67" cy="167.276" rx="14.4855" ry="15.2069" fill="#242323" fill-opacity="0.3"/>
<ellipse cx="384.67" cy="15.2069" rx="14.4855" ry="15.2069" fill="#242323" fill-opacity="0.3"/>
<ellipse cx="436.174" cy="15.2069" rx="14.4855" ry="15.2069" fill="#242323" fill-opacity="0.3"/>
<ellipse cx="489.287" cy="15.2069" rx="14.4855" ry="15.2069" fill="#242323" fill-opacity="0.3"/>
<ellipse cx="542.401" cy="15.2069" rx="14.4855" ry="15.2069" fill="#242323" fill-opacity="0.3"/>
<ellipse cx="436.174" cy="65.8967" rx="14.4855" ry="15.2069" fill="#242323" fill-opacity="0.3"/>
<ellipse cx="489.287" cy="65.8967" rx="14.4855" ry="15.2069" fill="#242323" fill-opacity="0.3"/>
<ellipse cx="542.401" cy="65.8967" rx="14.4855" ry="15.2069" fill="#242323" fill-opacity="0.3"/>
<ellipse cx="595.514" cy="65.8967" rx="14.4855" ry="15.2069" fill="#242323" fill-opacity="0.3"/>
<ellipse cx="595.514" cy="116.587" rx="14.4855" ry="15.2069" fill="#242323" fill-opacity="0.3"/>
<ellipse cx="542.401" cy="116.587" rx="14.4855" ry="15.2069" fill="#242323" fill-opacity="0.3"/>
<ellipse cx="489.287" cy="116.587" rx="14.4855" ry="15.2069" fill="#242323" fill-opacity="0.3"/>
<ellipse cx="436.174" cy="116.587" rx="14.4855" ry="15.2069" fill="#242323" fill-opacity="0.3"/>
<ellipse cx="436.174" cy="167.276" rx="14.4855" ry="15.2069" fill="#242323" fill-opacity="0.3"/>
<ellipse cx="489.287" cy="167.276" rx="14.4855" ry="15.2069" fill="#242323" fill-opacity="0.3"/>
<ellipse cx="542.401" cy="167.276" rx="14.4855" ry="15.2069" fill="#242323" fill-opacity="0.3"/>
<ellipse cx="595.514" cy="167.276" rx="14.4855" ry="15.2069" fill="#242323" fill-opacity="0.3"/>
<ellipse cx="595.514" cy="15.2069" rx="14.4855" ry="15.2069" fill="#242323" fill-opacity="0.3"/>
<ellipse cx="14.4855" cy="209.518" rx="14.4855" ry="15.2069" fill="#242323" fill-opacity="0.3"/>
<ellipse cx="67.599" cy="209.518" rx="14.4855" ry="15.2069" fill="#242323" fill-opacity="0.3"/>
<ellipse cx="120.712" cy="209.518" rx="14.4855" ry="15.2069" fill="#242323" fill-opacity="0.3"/>
<ellipse cx="14.4855" cy="260.208" rx="14.4855" ry="15.2069" fill="#242323" fill-opacity="0.3"/>
<ellipse cx="67.599" cy="260.208" rx="14.4855" ry="15.2069" fill="#242323" fill-opacity="0.3"/>
<ellipse cx="120.712" cy="260.208" rx="14.4855" ry="15.2069" fill="#242323" fill-opacity="0.3"/>
<ellipse cx="173.826" cy="260.208" rx="14.4855" ry="15.2069" fill="#242323" fill-opacity="0.3"/>
<ellipse cx="173.826" cy="310.897" rx="14.4855" ry="15.2069" fill="#242323" fill-opacity="0.3"/>
<ellipse cx="120.712" cy="310.897" rx="14.4855" ry="15.2069" fill="#242323" fill-opacity="0.3"/>
<ellipse cx="67.599" cy="310.897" rx="14.4855" ry="15.2069" fill="#242323" fill-opacity="0.3"/>
<ellipse cx="14.4855" cy="310.897" rx="14.4855" ry="15.2069" fill="#242323" fill-opacity="0.3"/>
<ellipse cx="14.4855" cy="361.587" rx="14.4855" ry="15.2069" fill="#242323" fill-opacity="0.3"/>
<ellipse cx="67.599" cy="361.587" rx="14.4855" ry="15.2069" fill="#242323" fill-opacity="0.3"/>
<ellipse cx="120.712" cy="361.587" rx="14.4855" ry="15.2069" fill="#242323" fill-opacity="0.3"/>
<ellipse cx="173.826" cy="361.587" rx="14.4855" ry="15.2069" fill="#242323" fill-opacity="0.3"/>
<ellipse cx="173.826" cy="209.518" rx="14.4855" ry="15.2069" fill="#242323" fill-opacity="0.3"/>
<ellipse cx="225.33" cy="209.518" rx="14.4855" ry="15.2069" fill="#242323" fill-opacity="0.3"/>
<ellipse cx="278.443" cy="209.518" rx="14.4855" ry="15.2069" fill="#242323" fill-opacity="0.3"/>
<ellipse cx="331.557" cy="209.518" rx="14.4855" ry="15.2069" fill="#242323" fill-opacity="0.3"/>
<ellipse cx="225.33" cy="260.208" rx="14.4855" ry="15.2069" fill="#242323" fill-opacity="0.3"/>
<ellipse cx="278.443" cy="260.208" rx="14.4855" ry="15.2069" fill="#242323" fill-opacity="0.3"/>
<ellipse cx="331.557" cy="260.208" rx="14.4855" ry="15.2069" fill="#242323" fill-opacity="0.3"/>
<ellipse cx="384.67" cy="260.208" rx="14.4855" ry="15.2069" fill="#242323" fill-opacity="0.3"/>
<ellipse cx="384.67" cy="310.897" rx="14.4855" ry="15.2069" fill="#242323" fill-opacity="0.3"/>
<ellipse cx="331.557" cy="310.897" rx="14.4855" ry="15.2069" fill="#242323" fill-opacity="0.3"/>
<ellipse cx="278.443" cy="310.897" rx="14.4855" ry="15.2069" fill="#242323" fill-opacity="0.3"/>
<ellipse cx="225.33" cy="310.897" rx="14.4855" ry="15.2069" fill="#242323" fill-opacity="0.3"/>
<ellipse cx="225.33" cy="361.587" rx="14.4855" ry="15.2069" fill="#242323" fill-opacity="0.3"/>
<ellipse cx="278.443" cy="361.587" rx="14.4855" ry="15.2069" fill="#242323" fill-opacity="0.3"/>
<ellipse cx="331.557" cy="361.587" rx="14.4855" ry="15.2069" fill="#242323" fill-opacity="0.3"/>
<ellipse cx="384.67" cy="361.587" rx="14.4855" ry="15.2069" fill="#242323" fill-opacity="0.3"/>
<ellipse cx="384.67" cy="209.518" rx="14.4855" ry="15.2069" fill="#242323" fill-opacity="0.3"/>
<ellipse cx="436.174" cy="209.518" rx="14.4855" ry="15.2069" fill="#242323" fill-opacity="0.3"/>
<ellipse cx="489.287" cy="209.518" rx="14.4855" ry="15.2069" fill="#242323" fill-opacity="0.3"/>
<ellipse cx="542.401" cy="209.518" rx="14.4855" ry="15.2069" fill="#242323" fill-opacity="0.3"/>
<ellipse cx="436.174" cy="260.208" rx="14.4855" ry="15.2069" fill="#242323" fill-opacity="0.3"/>
<ellipse cx="489.287" cy="260.208" rx="14.4855" ry="15.2069" fill="#242323" fill-opacity="0.3"/>
<ellipse cx="542.401" cy="260.208" rx="14.4855" ry="15.2069" fill="#242323" fill-opacity="0.3"/>
<ellipse cx="595.514" cy="260.208" rx="14.4855" ry="15.2069" fill="#242323" fill-opacity="0.3"/>
<ellipse cx="595.514" cy="310.897" rx="14.4855" ry="15.2069" fill="#242323" fill-opacity="0.3"/>
<ellipse cx="542.401" cy="310.897" rx="14.4855" ry="15.2069" fill="#242323" fill-opacity="0.3"/>
<ellipse cx="489.287" cy="310.897" rx="14.4855" ry="15.2069" fill="#242323" fill-opacity="0.3"/>
<ellipse cx="436.174" cy="310.897" rx="14.4855" ry="15.2069" fill="#242323" fill-opacity="0.3"/>
<ellipse cx="436.174" cy="361.587" rx="14.4855" ry="15.2069" fill="#242323" fill-opacity="0.3"/>
<ellipse cx="489.287" cy="361.587" rx="14.4855" ry="15.2069" fill="#242323" fill-opacity="0.3"/>
<ellipse cx="542.401" cy="361.587" rx="14.4855" ry="15.2069" fill="#242323" fill-opacity="0.3"/>
<ellipse cx="595.514" cy="361.587" rx="14.4855" ry="15.2069" fill="#242323" fill-opacity="0.3"/>
<ellipse cx="595.514" cy="209.518" rx="14.4855" ry="15.2069" fill="#242323" fill-opacity="0.3"/>
<ellipse cx="14.4855" cy="15.2069" rx="14.4855" ry="15.2069" fill="#242323" fill-opacity="0.3"/>
<ellipse cx="67.599" cy="15.2069" rx="14.4855" ry="15.2069" fill="#242323" fill-opacity="0.3"/>
<ellipse cx="120.712" cy="15.2069" rx="14.4855" ry="15.2069" fill="#242323" fill-opacity="0.3"/>
<ellipse cx="14.4855" cy="65.8967" rx="14.4855" ry="15.2069" fill="#242323" fill-opacity="0.3"/>
<ellipse cx="67.599" cy="65.8967" rx="14.4855" ry="15.2069" fill="#242323" fill-opacity="0.3"/>
<ellipse cx="120.712" cy="65.8967" rx="14.4855" ry="15.2069" fill="#242323" fill-opacity="0.3"/>
<ellipse cx="173.826" cy="65.8967" rx="14.4855" ry="15.2069" fill="#242323" fill-opacity="0.3"/>
<ellipse cx="173.826" cy="116.587" rx="14.4855" ry="15.2069" fill="#242323" fill-opacity="0.3"/>
<ellipse cx="120.712" cy="116.587" rx="14.4855" ry="15.2069" fill="#242323" fill-opacity="0.3"/>
<ellipse cx="67.599" cy="116.587" rx="14.4855" ry="15.2069" fill="#242323" fill-opacity="0.3"/>
<ellipse cx="14.4855" cy="116.587" rx="14.4855" ry="15.2069" fill="#242323" fill-opacity="0.3"/>
<ellipse cx="14.4855" cy="167.276" rx="14.4855" ry="15.2069" fill="#242323" fill-opacity="0.3"/>
<ellipse cx="67.599" cy="167.276" rx="14.4855" ry="15.2069" fill="#242323" fill-opacity="0.3"/>
<ellipse cx="120.712" cy="167.276" rx="14.4855" ry="15.2069" fill="#242323" fill-opacity="0.3"/>
<ellipse cx="173.826" cy="167.276" rx="14.4855" ry="15.2069" fill="#242323" fill-opacity="0.3"/>
<ellipse cx="173.826" cy="15.2069" rx="14.4855" ry="15.2069" fill="#242323" fill-opacity="0.3"/>
<ellipse cx="225.33" cy="15.2069" rx="14.4855" ry="15.2069" fill="#242323" fill-opacity="0.3"/>
<ellipse cx="278.443" cy="15.2069" rx="14.4855" ry="15.2069" fill="#242323" fill-opacity="0.3"/>
<ellipse cx="331.557" cy="15.2069" rx="14.4855" ry="15.2069" fill="#242323" fill-opacity="0.3"/>
<ellipse cx="225.33" cy="65.8967" rx="14.4855" ry="15.2069" fill="#242323" fill-opacity="0.3"/>
<ellipse cx="278.443" cy="65.8967" rx="14.4855" ry="15.2069" fill="#242323" fill-opacity="0.3"/>
<ellipse cx="331.557" cy="65.8967" rx="14.4855" ry="15.2069" fill="#242323" fill-opacity="0.3"/>
<ellipse cx="384.67" cy="65.8967" rx="14.4855" ry="15.2069" fill="#242323" fill-opacity="0.3"/>
<ellipse cx="384.67" cy="116.587" rx="14.4855" ry="15.2069" fill="#242323" fill-opacity="0.3"/>
<ellipse cx="331.557" cy="116.587" rx="14.4855" ry="15.2069" fill="#242323" fill-opacity="0.3"/>
<ellipse cx="278.443" cy="116.587" rx="14.4855" ry="15.2069" fill="#242323" fill-opacity="0.3"/>
<ellipse cx="225.33" cy="116.587" rx="14.4855" ry="15.2069" fill="#242323" fill-opacity="0.3"/>
<ellipse cx="225.33" cy="167.276" rx="14.4855" ry="15.2069" fill="#242323" fill-opacity="0.3"/>
<ellipse cx="278.443" cy="167.276" rx="14.4855" ry="15.2069" fill="#242323" fill-opacity="0.3"/>
<ellipse cx="331.557" cy="167.276" rx="14.4855" ry="15.2069" fill="#242323" fill-opacity="0.3"/>
<ellipse cx="384.67" cy="167.276" rx="14.4855" ry="15.2069" fill="#242323" fill-opacity="0.3"/>
<ellipse cx="384.67" cy="15.2069" rx="14.4855" ry="15.2069" fill="#242323" fill-opacity="0.3"/>
<ellipse cx="436.174" cy="15.2069" rx="14.4855" ry="15.2069" fill="#242323" fill-opacity="0.3"/>
<ellipse cx="489.287" cy="15.2069" rx="14.4855" ry="15.2069" fill="#242323" fill-opacity="0.3"/>
<ellipse cx="542.401" cy="15.2069" rx="14.4855" ry="15.2069" fill="#242323" fill-opacity="0.3"/>
<ellipse cx="436.174" cy="65.8967" rx="14.4855" ry="15.2069" fill="#242323" fill-opacity="0.3"/>
<ellipse cx="489.287" cy="65.8967" rx="14.4855" ry="15.2069" fill="#242323" fill-opacity="0.3"/>
<ellipse cx="542.401" cy="65.8967" rx="14.4855" ry="15.2069" fill="#242323" fill-opacity="0.3"/>
<ellipse cx="595.514" cy="65.8967" rx="14.4855" ry="15.2069" fill="#242323" fill-opacity="0.3"/>
<ellipse cx="595.514" cy="116.587" rx="14.4855" ry="15.2069" fill="#242323" fill-opacity="0.3"/>
<ellipse cx="542.401" cy="116.587" rx="14.4855" ry="15.2069" fill="#242323" fill-opacity="0.3"/>
<ellipse cx="489.287" cy="116.587" rx="14.4855" ry="15.2069" fill="#242323" fill-opacity="0.3"/>
<ellipse cx="436.174" cy="116.587" rx="14.4855" ry="15.2069" fill="#242323" fill-opacity="0.3"/>
<ellipse cx="436.174" cy="167.276" rx="14.4855" ry="15.2069" fill="#242323" fill-opacity="0.3"/>
<ellipse cx="489.287" cy="167.276" rx="14.4855" ry="15.2069" fill="#242323" fill-opacity="0.3"/>
<ellipse cx="542.401" cy="167.276" rx="14.4855" ry="15.2069" fill="#242323" fill-opacity="0.3"/>
<ellipse cx="595.514" cy="167.276" rx="14.4855" ry="15.2069" fill="#242323" fill-opacity="0.3"/>
<ellipse cx="595.514" cy="15.2069" rx="14.4855" ry="15.2069" fill="#242323" fill-opacity="0.3"/>
<ellipse cx="14.4855" cy="209.518" rx="14.4855" ry="15.2069" fill="#242323" fill-opacity="0.3"/>
<ellipse cx="67.599" cy="209.518" rx="14.4855" ry="15.2069" fill="#242323" fill-opacity="0.3"/>
<ellipse cx="120.712" cy="209.518" rx="14.4855" ry="15.2069" fill="#242323" fill-opacity="0.3"/>
<ellipse cx="14.4855" cy="260.208" rx="14.4855" ry="15.2069" fill="#242323" fill-opacity="0.3"/>
<ellipse cx="67.599" cy="260.208" rx="14.4855" ry="15.2069" fill="#242323" fill-opacity="0.3"/>
<ellipse cx="120.712" cy="260.208" rx="14.4855" ry="15.2069" fill="#242323" fill-opacity="0.3"/>
<ellipse cx="173.826" cy="260.208" rx="14.4855" ry="15.2069" fill="#242323" fill-opacity="0.3"/>
<ellipse cx="173.826" cy="310.897" rx="14.4855" ry="15.2069" fill="#242323" fill-opacity="0.3"/>
<ellipse cx="120.712" cy="310.897" rx="14.4855" ry="15.2069" fill="#242323" fill-opacity="0.3"/>
<ellipse cx="67.599" cy="310.897" rx="14.4855" ry="15.2069" fill="#242323" fill-opacity="0.3"/>
<ellipse cx="14.4855" cy="310.897" rx="14.4855" ry="15.2069" fill="#242323" fill-opacity="0.3"/>
<ellipse cx="14.4855" cy="361.587" rx="14.4855" ry="15.2069" fill="#242323" fill-opacity="0.3"/>
<ellipse cx="67.599" cy="361.587" rx="14.4855" ry="15.2069" fill="#242323" fill-opacity="0.3"/>
<ellipse cx="120.712" cy="361.587" rx="14.4855" ry="15.2069" fill="#242323" fill-opacity="0.3"/>
<ellipse cx="173.826" cy="361.587" rx="14.4855" ry="15.2069" fill="#242323" fill-opacity="0.3"/>
<ellipse cx="173.826" cy="209.518" rx="14.4855" ry="15.2069" fill="#242323" fill-opacity="0.3"/>
<ellipse cx="225.33" cy="209.518" rx="14.4855" ry="15.2069" fill="#242323" fill-opacity="0.3"/>
<ellipse cx="278.443" cy="209.518" rx="14.4855" ry="15.2069" fill="#242323" fill-opacity="0.3"/>
<ellipse cx="331.557" cy="209.518" rx="14.4855" ry="15.2069" fill="#242323" fill-opacity="0.3"/>
<ellipse cx="225.33" cy="260.208" rx="14.4855" ry="15.2069" fill="#242323" fill-opacity="0.3"/>
<ellipse cx="278.443" cy="260.208" rx="14.4855" ry="15.2069" fill="#242323" fill-opacity="0.3"/>
<ellipse cx="331.557" cy="260.208" rx="14.4855" ry="15.2069" fill="#242323" fill-opacity="0.3"/>
<ellipse cx="384.67" cy="260.208" rx="14.4855" ry="15.2069" fill="#242323" fill-opacity="0.3"/>
<ellipse cx="384.67" cy="310.897" rx="14.4855" ry="15.2069" fill="#242323" fill-opacity="0.3"/>
<ellipse cx="331.557" cy="310.897" rx="14.4855" ry="15.2069" fill="#242323" fill-opacity="0.3"/>
<ellipse cx="278.443" cy="310.897" rx="14.4855" ry="15.2069" fill="#242323" fill-opacity="0.3"/>
<ellipse cx="225.33" cy="310.897" rx="14.4855" ry="15.2069" fill="#242323" fill-opacity="0.3"/>
<ellipse cx="225.33" cy="361.587" rx="14.4855" ry="15.2069" fill="#242323" fill-opacity="0.3"/>
<ellipse cx="278.443" cy="361.587" rx="14.4855" ry="15.2069" fill="#242323" fill-opacity="0.3"/>
<ellipse cx="331.557" cy="361.587" rx="14.4855" ry="15.2069" fill="#242323" fill-opacity="0.3"/>
<ellipse cx="384.67" cy="361.587" rx="14.4855" ry="15.2069" fill="#242323" fill-opacity="0.3"/>
<ellipse cx="384.67" cy="209.518" rx="14.4855" ry="15.2069" fill="#242323" fill-opacity="0.3"/>
<ellipse cx="436.174" cy="209.518" rx="14.4855" ry="15.2069" fill="#242323" fill-opacity="0.3"/>
<ellipse cx="489.287" cy="209.518" rx="14.4855" ry="15.2069" fill="#242323" fill-opacity="0.3"/>
<ellipse cx="542.401" cy="209.518" rx="14.4855" ry="15.2069" fill="#242323" fill-opacity="0.3"/>
<ellipse cx="436.174" cy="260.208" rx="14.4855" ry="15.2069" fill="#242323" fill-opacity="0.3"/>
<ellipse cx="489.287" cy="260.208" rx="14.4855" ry="15.2069" fill="#242323" fill-opacity="0.3"/>
<ellipse cx="542.401" cy="260.208" rx="14.4855" ry="15.2069" fill="#242323" fill-opacity="0.3"/>
<ellipse cx="595.514" cy="260.208" rx="14.4855" ry="15.2069" fill="#242323" fill-opacity="0.3"/>
<ellipse cx="595.514" cy="310.897" rx="14.4855" ry="15.2069" fill="#242323" fill-opacity="0.3"/>
<ellipse cx="542.401" cy="310.897" rx="14.4855" ry="15.2069" fill="#242323" fill-opacity="0.3"/>
<ellipse cx="489.287" cy="310.897" rx="14.4855" ry="15.2069" fill="#242323" fill-opacity="0.3"/>
<ellipse cx="436.174" cy="310.897" rx="14.4855" ry="15.2069" fill="#242323" fill-opacity="0.3"/>
<ellipse cx="436.174" cy="361.587" rx="14.4855" ry="15.2069" fill="#242323" fill-opacity="0.3"/>
<ellipse cx="489.287" cy="361.587" rx="14.4855" ry="15.2069" fill="#242323" fill-opacity="0.3"/>
<ellipse cx="542.401" cy="361.587" rx="14.4855" ry="15.2069" fill="#242323" fill-opacity="0.3"/>
<ellipse cx="595.514" cy="361.587" rx="14.4855" ry="15.2069" fill="#242323" fill-opacity="0.3"/>
<ellipse cx="595.514" cy="209.518" rx="14.4855" ry="15.2069" fill="#242323" fill-opacity="0.3"/>
<ellipse cx="14.4855" cy="407.413" rx="14.4855" ry="15.2069" fill="#242323" fill-opacity="0.3"/>
<ellipse cx="67.599" cy="407.413" rx="14.4855" ry="15.2069" fill="#242323" fill-opacity="0.3"/>
<ellipse cx="120.712" cy="407.413" rx="14.4855" ry="15.2069" fill="#242323" fill-opacity="0.3"/>
<ellipse cx="14.4855" cy="458.103" rx="14.4855" ry="15.2069" fill="#242323" fill-opacity="0.3"/>
<ellipse cx="67.599" cy="458.103" rx="14.4855" ry="15.2069" fill="#242323" fill-opacity="0.3"/>
<ellipse cx="120.712" cy="458.103" rx="14.4855" ry="15.2069" fill="#242323" fill-opacity="0.3"/>
<ellipse cx="173.826" cy="458.103" rx="14.4855" ry="15.2069" fill="#242323" fill-opacity="0.3"/>
<ellipse cx="173.826" cy="508.792" rx="14.4855" ry="15.2069" fill="#242323" fill-opacity="0.3"/>
<ellipse cx="120.712" cy="508.792" rx="14.4855" ry="15.2069" fill="#242323" fill-opacity="0.3"/>
<ellipse cx="67.599" cy="508.792" rx="14.4855" ry="15.2069" fill="#242323" fill-opacity="0.3"/>
<ellipse cx="14.4855" cy="508.792" rx="14.4855" ry="15.2069" fill="#242323" fill-opacity="0.3"/>
<ellipse cx="14.4855" cy="559.482" rx="14.4855" ry="15.2069" fill="#242323" fill-opacity="0.3"/>
<ellipse cx="67.599" cy="559.482" rx="14.4855" ry="15.2069" fill="#242323" fill-opacity="0.3"/>
<ellipse cx="120.712" cy="559.482" rx="14.4855" ry="15.2069" fill="#242323" fill-opacity="0.3"/>
<ellipse cx="173.826" cy="559.482" rx="14.4855" ry="15.2069" fill="#242323" fill-opacity="0.3"/>
<ellipse cx="173.826" cy="407.413" rx="14.4855" ry="15.2069" fill="#242323" fill-opacity="0.3"/>
<ellipse cx="225.33" cy="407.413" rx="14.4855" ry="15.2069" fill="#242323" fill-opacity="0.3"/>
<ellipse cx="278.443" cy="407.413" rx="14.4855" ry="15.2069" fill="#242323" fill-opacity="0.3"/>
<ellipse cx="331.557" cy="407.413" rx="14.4855" ry="15.2069" fill="#242323" fill-opacity="0.3"/>
<ellipse cx="225.33" cy="458.103" rx="14.4855" ry="15.2069" fill="#242323" fill-opacity="0.3"/>
<ellipse cx="278.443" cy="458.103" rx="14.4855" ry="15.2069" fill="#242323" fill-opacity="0.3"/>
<ellipse cx="331.557" cy="458.103" rx="14.4855" ry="15.2069" fill="#242323" fill-opacity="0.3"/>
<ellipse cx="384.67" cy="458.103" rx="14.4855" ry="15.2069" fill="#242323" fill-opacity="0.3"/>
<ellipse cx="384.67" cy="508.792" rx="14.4855" ry="15.2069" fill="#242323" fill-opacity="0.3"/>
<ellipse cx="331.557" cy="508.792" rx="14.4855" ry="15.2069" fill="#242323" fill-opacity="0.3"/>
<ellipse cx="278.443" cy="508.792" rx="14.4855" ry="15.2069" fill="#242323" fill-opacity="0.3"/>
<ellipse cx="225.33" cy="508.792" rx="14.4855" ry="15.2069" fill="#242323" fill-opacity="0.3"/>
<ellipse cx="225.33" cy="559.482" rx="14.4855" ry="15.2069" fill="#242323" fill-opacity="0.3"/>
<ellipse cx="278.443" cy="559.482" rx="14.4855" ry="15.2069" fill="#242323" fill-opacity="0.3"/>
<ellipse cx="331.557" cy="559.482" rx="14.4855" ry="15.2069" fill="#242323" fill-opacity="0.3"/>
<ellipse cx="384.67" cy="559.482" rx="14.4855" ry="15.2069" fill="#242323" fill-opacity="0.3"/>
<ellipse cx="384.67" cy="407.413" rx="14.4855" ry="15.2069" fill="#242323" fill-opacity="0.3"/>
<ellipse cx="436.174" cy="407.413" rx="14.4855" ry="15.2069" fill="#242323" fill-opacity="0.3"/>
<ellipse cx="489.287" cy="407.413" rx="14.4855" ry="15.2069" fill="#242323" fill-opacity="0.3"/>
<ellipse cx="542.401" cy="407.413" rx="14.4855" ry="15.2069" fill="#242323" fill-opacity="0.3"/>
<ellipse cx="436.174" cy="458.103" rx="14.4855" ry="15.2069" fill="#242323" fill-opacity="0.3"/>
<ellipse cx="489.287" cy="458.103" rx="14.4855" ry="15.2069" fill="#242323" fill-opacity="0.3"/>
<ellipse cx="542.401" cy="458.103" rx="14.4855" ry="15.2069" fill="#242323" fill-opacity="0.3"/>
<ellipse cx="595.514" cy="458.103" rx="14.4855" ry="15.2069" fill="#242323" fill-opacity="0.3"/>
<ellipse cx="595.514" cy="508.792" rx="14.4855" ry="15.2069" fill="#242323" fill-opacity="0.3"/>
<ellipse cx="542.401" cy="508.792" rx="14.4855" ry="15.2069" fill="#242323" fill-opacity="0.3"/>
<ellipse cx="489.287" cy="508.792" rx="14.4855" ry="15.2069" fill="#242323" fill-opacity="0.3"/>
<ellipse cx="436.174" cy="508.792" rx="14.4855" ry="15.2069" fill="#242323" fill-opacity="0.3"/>
<ellipse cx="436.174" cy="559.482" rx="14.4855" ry="15.2069" fill="#242323" fill-opacity="0.3"/>
<ellipse cx="489.287" cy="559.482" rx="14.4855" ry="15.2069" fill="#242323" fill-opacity="0.3"/>
<ellipse cx="542.401" cy="559.482" rx="14.4855" ry="15.2069" fill="#242323" fill-opacity="0.3"/>
<ellipse cx="595.514" cy="559.482" rx="14.4855" ry="15.2069" fill="#242323" fill-opacity="0.3"/>
<ellipse cx="595.514" cy="407.413" rx="14.4855" ry="15.2069" fill="#242323" fill-opacity="0.3"/>
<ellipse cx="14.4855" cy="601.724" rx="14.4855" ry="15.2069" fill="#242323" fill-opacity="0.3"/>
<ellipse cx="67.599" cy="601.724" rx="14.4855" ry="15.2069" fill="#242323" fill-opacity="0.3"/>
<ellipse cx="120.712" cy="601.724" rx="14.4855" ry="15.2069" fill="#242323" fill-opacity="0.3"/>
<ellipse cx="14.4855" cy="652.414" rx="14.4855" ry="15.2069" fill="#242323" fill-opacity="0.3"/>
<ellipse cx="67.599" cy="652.414" rx="14.4855" ry="15.2069" fill="#242323" fill-opacity="0.3"/>
<ellipse cx="120.712" cy="652.414" rx="14.4855" ry="15.2069" fill="#242323" fill-opacity="0.3"/>
<ellipse cx="173.826" cy="652.414" rx="14.4855" ry="15.2069" fill="#242323" fill-opacity="0.3"/>
<ellipse cx="173.826" cy="703.103" rx="14.4855" ry="15.2069" fill="#242323" fill-opacity="0.3"/>
<ellipse cx="120.712" cy="703.103" rx="14.4855" ry="15.2069" fill="#242323" fill-opacity="0.3"/>
<ellipse cx="67.599" cy="703.103" rx="14.4855" ry="15.2069" fill="#242323" fill-opacity="0.3"/>
<ellipse cx="14.4855" cy="703.103" rx="14.4855" ry="15.2069" fill="#242323" fill-opacity="0.3"/>
<ellipse cx="14.4855" cy="753.793" rx="14.4855" ry="15.2069" fill="#242323" fill-opacity="0.3"/>
<ellipse cx="67.599" cy="753.793" rx="14.4855" ry="15.2069" fill="#242323" fill-opacity="0.3"/>
<ellipse cx="120.712" cy="753.793" rx="14.4855" ry="15.2069" fill="#242323" fill-opacity="0.3"/>
<ellipse cx="173.826" cy="753.793" rx="14.4855" ry="15.2069" fill="#242323" fill-opacity="0.3"/>
<ellipse cx="173.826" cy="601.724" rx="14.4855" ry="15.2069" fill="#242323" fill-opacity="0.3"/>
<ellipse cx="225.33" cy="601.724" rx="14.4855" ry="15.2069" fill="#242323" fill-opacity="0.3"/>
<ellipse cx="278.443" cy="601.724" rx="14.4855" ry="15.2069" fill="#242323" fill-opacity="0.3"/>
<ellipse cx="331.557" cy="601.724" rx="14.4855" ry="15.2069" fill="#242323" fill-opacity="0.3"/>
<ellipse cx="225.33" cy="652.414" rx="14.4855" ry="15.2069" fill="#242323" fill-opacity="0.3"/>
<ellipse cx="278.443" cy="652.414" rx="14.4855" ry="15.2069" fill="#242323" fill-opacity="0.3"/>
<ellipse cx="331.557" cy="652.414" rx="14.4855" ry="15.2069" fill="#242323" fill-opacity="0.3"/>
<ellipse cx="384.67" cy="652.414" rx="14.4855" ry="15.2069" fill="#242323" fill-opacity="0.3"/>
<ellipse cx="384.67" cy="703.103" rx="14.4855" ry="15.2069" fill="#242323" fill-opacity="0.3"/>
<ellipse cx="331.557" cy="703.103" rx="14.4855" ry="15.2069" fill="#242323" fill-opacity="0.3"/>
<ellipse cx="278.443" cy="703.103" rx="14.4855" ry="15.2069" fill="#242323" fill-opacity="0.3"/>
<ellipse cx="225.33" cy="703.103" rx="14.4855" ry="15.2069" fill="#242323" fill-opacity="0.3"/>
<ellipse cx="225.33" cy="753.793" rx="14.4855" ry="15.2069" fill="#242323" fill-opacity="0.3"/>
<ellipse cx="278.443" cy="753.793" rx="14.4855" ry="15.2069" fill="#242323" fill-opacity="0.3"/>
<ellipse cx="331.557" cy="753.793" rx="14.4855" ry="15.2069" fill="#242323" fill-opacity="0.3"/>
<ellipse cx="384.67" cy="753.793" rx="14.4855" ry="15.2069" fill="#242323" fill-opacity="0.3"/>
<ellipse cx="384.67" cy="601.724" rx="14.4855" ry="15.2069" fill="#242323" fill-opacity="0.3"/>
<ellipse cx="436.174" cy="601.724" rx="14.4855" ry="15.2069" fill="#242323" fill-opacity="0.3"/>
<ellipse cx="489.287" cy="601.724" rx="14.4855" ry="15.2069" fill="#242323" fill-opacity="0.3"/>
<ellipse cx="542.401" cy="601.724" rx="14.4855" ry="15.2069" fill="#242323" fill-opacity="0.3"/>
<ellipse cx="436.174" cy="652.414" rx="14.4855" ry="15.2069" fill="#242323" fill-opacity="0.3"/>
<ellipse cx="489.287" cy="652.414" rx="14.4855" ry="15.2069" fill="#242323" fill-opacity="0.3"/>
<ellipse cx="542.401" cy="652.414" rx="14.4855" ry="15.2069" fill="#242323" fill-opacity="0.3"/>
<ellipse cx="595.514" cy="652.414" rx="14.4855" ry="15.2069" fill="#242323" fill-opacity="0.3"/>
<ellipse cx="595.514" cy="703.103" rx="14.4855" ry="15.2069" fill="#242323" fill-opacity="0.3"/>
<ellipse cx="542.401" cy="703.103" rx="14.4855" ry="15.2069" fill="#242323" fill-opacity="0.3"/>
<ellipse cx="489.287" cy="703.103" rx="14.4855" ry="15.2069" fill="#242323" fill-opacity="0.3"/>
<ellipse cx="436.174" cy="703.103" rx="14.4855" ry="15.2069" fill="#242323" fill-opacity="0.3"/>
<ellipse cx="436.174" cy="753.793" rx="14.4855" ry="15.2069" fill="#242323" fill-opacity="0.3"/>
<ellipse cx="489.287" cy="753.793" rx="14.4855" ry="15.2069" fill="#242323" fill-opacity="0.3"/>
<ellipse cx="542.401" cy="753.793" rx="14.4855" ry="15.2069" fill="#242323" fill-opacity="0.3"/>
<ellipse cx="595.514" cy="753.793" rx="14.4855" ry="15.2069" fill="#242323" fill-opacity="0.3"/>
<ellipse cx="595.514" cy="601.724" rx="14.4855" ry="15.2069" fill="#242323" fill-opacity="0.3"/>
<ellipse cx="14.4855" cy="407.413" rx="14.4855" ry="15.2069" fill="#242323" fill-opacity="0.3"/>
<ellipse cx="67.599" cy="407.413" rx="14.4855" ry="15.2069" fill="#242323" fill-opacity="0.3"/>
<ellipse cx="120.712" cy="407.413" rx="14.4855" ry="15.2069" fill="#242323" fill-opacity="0.3"/>
<ellipse cx="14.4855" cy="458.103" rx="14.4855" ry="15.2069" fill="#242323" fill-opacity="0.3"/>
<ellipse cx="67.599" cy="458.103" rx="14.4855" ry="15.2069" fill="#242323" fill-opacity="0.3"/>
<ellipse cx="120.712" cy="458.103" rx="14.4855" ry="15.2069" fill="#242323" fill-opacity="0.3"/>
<ellipse cx="173.826" cy="458.103" rx="14.4855" ry="15.2069" fill="#242323" fill-opacity="0.3"/>
<ellipse cx="173.826" cy="508.792" rx="14.4855" ry="15.2069" fill="#242323" fill-opacity="0.3"/>
<ellipse cx="120.712" cy="508.792" rx="14.4855" ry="15.2069" fill="#242323" fill-opacity="0.3"/>
<ellipse cx="67.599" cy="508.792" rx="14.4855" ry="15.2069" fill="#242323" fill-opacity="0.3"/>
<ellipse cx="14.4855" cy="508.792" rx="14.4855" ry="15.2069" fill="#242323" fill-opacity="0.3"/>
<ellipse cx="14.4855" cy="559.482" rx="14.4855" ry="15.2069" fill="#242323" fill-opacity="0.3"/>
<ellipse cx="67.599" cy="559.482" rx="14.4855" ry="15.2069" fill="#242323" fill-opacity="0.3"/>
<ellipse cx="120.712" cy="559.482" rx="14.4855" ry="15.2069" fill="#242323" fill-opacity="0.3"/>
<ellipse cx="173.826" cy="559.482" rx="14.4855" ry="15.2069" fill="#242323" fill-opacity="0.3"/>
<ellipse cx="173.826" cy="407.413" rx="14.4855" ry="15.2069" fill="#242323" fill-opacity="0.3"/>
<ellipse cx="225.33" cy="407.413" rx="14.4855" ry="15.2069" fill="#242323" fill-opacity="0.3"/>
<ellipse cx="278.443" cy="407.413" rx="14.4855" ry="15.2069" fill="#242323" fill-opacity="0.3"/>
<ellipse cx="331.557" cy="407.413" rx="14.4855" ry="15.2069" fill="#242323" fill-opacity="0.3"/>
<ellipse cx="225.33" cy="458.103" rx="14.4855" ry="15.2069" fill="#242323" fill-opacity="0.3"/>
<ellipse cx="278.443" cy="458.103" rx="14.4855" ry="15.2069" fill="#242323" fill-opacity="0.3"/>
<ellipse cx="331.557" cy="458.103" rx="14.4855" ry="15.2069" fill="#242323" fill-opacity="0.3"/>
<ellipse cx="384.67" cy="458.103" rx="14.4855" ry="15.2069" fill="#242323" fill-opacity="0.3"/>
<ellipse cx="384.67" cy="508.792" rx="14.4855" ry="15.2069" fill="#242323" fill-opacity="0.3"/>
<ellipse cx="331.557" cy="508.792" rx="14.4855" ry="15.2069" fill="#242323" fill-opacity="0.3"/>
<ellipse cx="278.443" cy="508.792" rx="14.4855" ry="15.2069" fill="#242323" fill-opacity="0.3"/>
<ellipse cx="225.33" cy="508.792" rx="14.4855" ry="15.2069" fill="#242323" fill-opacity="0.3"/>
<ellipse cx="225.33" cy="559.482" rx="14.4855" ry="15.2069" fill="#242323" fill-opacity="0.3"/>
<ellipse cx="278.443" cy="559.482" rx="14.4855" ry="15.2069" fill="#242323" fill-opacity="0.3"/>
<ellipse cx="331.557" cy="559.482" rx="14.4855" ry="15.2069" fill="#242323" fill-opacity="0.3"/>
<ellipse cx="384.67" cy="559.482" rx="14.4855" ry="15.2069" fill="#242323" fill-opacity="0.3"/>
<ellipse cx="384.67" cy="407.413" rx="14.4855" ry="15.2069" fill="#242323" fill-opacity="0.3"/>
<ellipse cx="436.174" cy="407.413" rx="14.4855" ry="15.2069" fill="#242323" fill-opacity="0.3"/>
<ellipse cx="489.287" cy="407.413" rx="14.4855" ry="15.2069" fill="#242323" fill-opacity="0.3"/>
<ellipse cx="542.401" cy="407.413" rx="14.4855" ry="15.2069" fill="#242323" fill-opacity="0.3"/>
<ellipse cx="436.174" cy="458.103" rx="14.4855" ry="15.2069" fill="#242323" fill-opacity="0.3"/>
<ellipse cx="489.287" cy="458.103" rx="14.4855" ry="15.2069" fill="#242323" fill-opacity="0.3"/>
<ellipse cx="542.401" cy="458.103" rx="14.4855" ry="15.2069" fill="#242323" fill-opacity="0.3"/>
<ellipse cx="595.514" cy="458.103" rx="14.4855" ry="15.2069" fill="#242323" fill-opacity="0.3"/>
<ellipse cx="595.514" cy="508.792" rx="14.4855" ry="15.2069" fill="#242323" fill-opacity="0.3"/>
<ellipse cx="542.401" cy="508.792" rx="14.4855" ry="15.2069" fill="#242323" fill-opacity="0.3"/>
<ellipse cx="489.287" cy="508.792" rx="14.4855" ry="15.2069" fill="#242323" fill-opacity="0.3"/>
<ellipse cx="436.174" cy="508.792" rx="14.4855" ry="15.2069" fill="#242323" fill-opacity="0.3"/>
<ellipse cx="436.174" cy="559.482" rx="14.4855" ry="15.2069" fill="#242323" fill-opacity="0.3"/>
<ellipse cx="489.287" cy="559.482" rx="14.4855" ry="15.2069" fill="#242323" fill-opacity="0.3"/>
<ellipse cx="542.401" cy="559.482" rx="14.4855" ry="15.2069" fill="#242323" fill-opacity="0.3"/>
<ellipse cx="595.514" cy="559.482" rx="14.4855" ry="15.2069" fill="#242323" fill-opacity="0.3"/>
<ellipse cx="595.514" cy="407.413" rx="14.4855" ry="15.2069" fill="#242323" fill-opacity="0.3"/>
<ellipse cx="14.4855" cy="601.724" rx="14.4855" ry="15.2069" fill="#242323" fill-opacity="0.3"/>
<ellipse cx="67.599" cy="601.724" rx="14.4855" ry="15.2069" fill="#242323" fill-opacity="0.3"/>
<ellipse cx="120.712" cy="601.724" rx="14.4855" ry="15.2069" fill="#242323" fill-opacity="0.3"/>
<ellipse cx="14.4855" cy="652.414" rx="14.4855" ry="15.2069" fill="#242323" fill-opacity="0.3"/>
<ellipse cx="67.599" cy="652.414" rx="14.4855" ry="15.2069" fill="#242323" fill-opacity="0.3"/>
<ellipse cx="120.712" cy="652.414" rx="14.4855" ry="15.2069" fill="#242323" fill-opacity="0.3"/>
<ellipse cx="173.826" cy="652.414" rx="14.4855" ry="15.2069" fill="#242323" fill-opacity="0.3"/>
<ellipse cx="173.826" cy="703.103" rx="14.4855" ry="15.2069" fill="#242323" fill-opacity="0.3"/>
<ellipse cx="120.712" cy="703.103" rx="14.4855" ry="15.2069" fill="#242323" fill-opacity="0.3"/>
<ellipse cx="67.599" cy="703.103" rx="14.4855" ry="15.2069" fill="#242323" fill-opacity="0.3"/>
<ellipse cx="14.4855" cy="703.103" rx="14.4855" ry="15.2069" fill="#242323" fill-opacity="0.3"/>
<ellipse cx="14.4855" cy="753.793" rx="14.4855" ry="15.2069" fill="#242323" fill-opacity="0.3"/>
<ellipse cx="67.599" cy="753.793" rx="14.4855" ry="15.2069" fill="#242323" fill-opacity="0.3"/>
<ellipse cx="120.712" cy="753.793" rx="14.4855" ry="15.2069" fill="#242323" fill-opacity="0.3"/>
<ellipse cx="173.826" cy="753.793" rx="14.4855" ry="15.2069" fill="#242323" fill-opacity="0.3"/>
<ellipse cx="173.826" cy="601.724" rx="14.4855" ry="15.2069" fill="#242323" fill-opacity="0.3"/>
<ellipse cx="225.33" cy="601.724" rx="14.4855" ry="15.2069" fill="#242323" fill-opacity="0.3"/>
<ellipse cx="278.443" cy="601.724" rx="14.4855" ry="15.2069" fill="#242323" fill-opacity="0.3"/>
<ellipse cx="331.557" cy="601.724" rx="14.4855" ry="15.2069" fill="#242323" fill-opacity="0.3"/>
<ellipse cx="225.33" cy="652.414" rx="14.4855" ry="15.2069" fill="#242323" fill-opacity="0.3"/>
<ellipse cx="278.443" cy="652.414" rx="14.4855" ry="15.2069" fill="#242323" fill-opacity="0.3"/>
<ellipse cx="331.557" cy="652.414" rx="14.4855" ry="15.2069" fill="#242323" fill-opacity="0.3"/>
<ellipse cx="384.67" cy="652.414" rx="14.4855" ry="15.2069" fill="#242323" fill-opacity="0.3"/>
<ellipse cx="384.67" cy="703.103" rx="14.4855" ry="15.2069" fill="#242323" fill-opacity="0.3"/>
<ellipse cx="331.557" cy="703.103" rx="14.4855" ry="15.2069" fill="#242323" fill-opacity="0.3"/>
<ellipse cx="278.443" cy="703.103" rx="14.4855" ry="15.2069" fill="#242323" fill-opacity="0.3"/>
<ellipse cx="225.33" cy="703.103" rx="14.4855" ry="15.2069" fill="#242323" fill-opacity="0.3"/>
<ellipse cx="225.33" cy="753.793" rx="14.4855" ry="15.2069" fill="#242323" fill-opacity="0.3"/>
<ellipse cx="278.443" cy="753.793" rx="14.4855" ry="15.2069" fill="#242323" fill-opacity="0.3"/>
<ellipse cx="331.557" cy="753.793" rx="14.4855" ry="15.2069" fill="#242323" fill-opacity="0.3"/>
<ellipse cx="384.67" cy="753.793" rx="14.4855" ry="15.2069" fill="#242323" fill-opacity="0.3"/>
<ellipse cx="384.67" cy="601.724" rx="14.4855" ry="15.2069" fill="#242323" fill-opacity="0.3"/>
<ellipse cx="436.174" cy="601.724" rx="14.4855" ry="15.2069" fill="#242323" fill-opacity="0.3"/>
<ellipse cx="489.287" cy="601.724" rx="14.4855" ry="15.2069" fill="#242323" fill-opacity="0.3"/>
<ellipse cx="542.401" cy="601.724" rx="14.4855" ry="15.2069" fill="#242323" fill-opacity="0.3"/>
<ellipse cx="436.174" cy="652.414" rx="14.4855" ry="15.2069" fill="#242323" fill-opacity="0.3"/>
<ellipse cx="489.287" cy="652.414" rx="14.4855" ry="15.2069" fill="#242323" fill-opacity="0.3"/>
<ellipse cx="542.401" cy="652.414" rx="14.4855" ry="15.2069" fill="#242323" fill-opacity="0.3"/>
<ellipse cx="595.514" cy="652.414" rx="14.4855" ry="15.2069" fill="#242323" fill-opacity="0.3"/>
<ellipse cx="595.514" cy="703.103" rx="14.4855" ry="15.2069" fill="#242323" fill-opacity="0.3"/>
<ellipse cx="542.401" cy="703.103" rx="14.4855" ry="15.2069" fill="#242323" fill-opacity="0.3"/>
<ellipse cx="489.287" cy="703.103" rx="14.4855" ry="15.2069" fill="#242323" fill-opacity="0.3"/>
<ellipse cx="436.174" cy="703.103" rx="14.4855" ry="15.2069" fill="#242323" fill-opacity="0.3"/>
<ellipse cx="436.174" cy="753.793" rx="14.4855" ry="15.2069" fill="#242323" fill-opacity="0.3"/>
<ellipse cx="489.287" cy="753.793" rx="14.4855" ry="15.2069" fill="#242323" fill-opacity="0.3"/>
<ellipse cx="542.401" cy="753.793" rx="14.4855" ry="15.2069" fill="#242323" fill-opacity="0.3"/>
<ellipse cx="595.514" cy="753.793" rx="14.4855" ry="15.2069" fill="#242323" fill-opacity="0.3"/>
<ellipse cx="595.514" cy="601.724" rx="14.4855" ry="15.2069" fill="#242323" fill-opacity="0.3"/>
</svg>
